<!-- Generator: Adobe Illustrator 18.1.1, SVG Export Plug-In  -->
<svg version="1.1"
	 xmlns="http://www.w3.org/2000/svg" xmlns:xlink="http://www.w3.org/1999/xlink" xmlns:a="http://ns.adobe.com/AdobeSVGViewerExtensions/3.0/"
	 x="0px" y="0px" width="594.5px" height="200px" viewBox="0 0 594.5 200" enable-background="new 0 0 594.5 200"
	 xml:space="preserve">
<defs>
</defs>
<g>
	<path fill="#FFFFFF" d="M192.6,15.5h17.8c13.6,0,22.4,6.8,22.4,20.5c0,13.5-10.2,20.5-23.1,20.5h-10v31.3h-7.2V15.5z M199.7,50.4h5
		c10.8,0,20.9-1.2,20.9-14.3c0-9.1-5.2-14.3-14.3-14.3h-11.6V50.4z"/>
	<path fill="#FFFFFF" d="M243.7,46.8c0-5.8,0-8-0.4-11.8h6.5v10.2h0.2c2.4-5.9,6.8-11.4,13.6-11.4c1.6,0,3.4,0.3,4.6,0.6v6.8
		c-1.3-0.4-3.1-0.6-4.8-0.6c-10.4,0-13.2,11.6-13.2,21.1v26.1h-6.5V46.8z"/>
	<path fill="#FFFFFF" d="M311.8,86.2c-4.6,1.9-10.5,2.9-15.3,2.9c-17.5,0-24-11.8-24-27.7c0-16.2,8.9-27.7,22.3-27.7
		c14.9,0,21,12,21,26.2v3.3h-36.2c0,11.2,6,20.2,17.4,20.2c4.8,0,11.7-2,14.8-3.9V86.2z M308.6,57.7c0-9.2-3.7-18.3-13.5-18.3
		c-9.6,0-15.6,9.6-15.6,18.3H308.6z"/>
	<path fill="#FFFFFF" d="M378.5,23.6c-4.6-2.4-11.1-3.1-16.2-3.1c-18.8,0-29.3,13.3-29.3,31.2c0,18.2,10.3,31.2,29.3,31.2
		c4.8,0,12-0.6,16.2-3.1L379,86c-3.9,2.4-12,3.1-16.6,3.1c-22.8,0-36.5-15-36.5-37.4c0-22,14.1-37.4,36.5-37.4
		c4.2,0,12.9,0.7,16.6,2.7L378.5,23.6z"/>
	<path fill="#FFFFFF" d="M397.3,10.1h6.5v33.8h0.2c2.8-5.8,8.7-10.2,16.5-10.2c14.2,0,18,9.4,18,22.5v31.6H432V56.4
		c0-9.1-1.8-17-12.5-17c-11.6,0-15.7,11-15.7,20.2v28.3h-6.5V10.1z"/>
	<path fill="#FFFFFF" d="M490.4,86.2c-4.6,1.9-10.5,2.9-15.3,2.9c-17.5,0-24.1-11.8-24.1-27.7c0-16.2,8.9-27.7,22.3-27.7
		c14.9,0,21,12,21,26.2v3.3h-36.2c0,11.2,6,20.2,17.4,20.2c4.8,0,11.7-2,14.8-3.9V86.2z M487.2,57.7c0-9.2-3.7-18.3-13.5-18.3
		c-9.6,0-15.6,9.6-15.6,18.3H487.2z"/>
	<path fill="#FFFFFF" d="M541.2,42.1c-3.5-1.6-7.8-2.7-11.3-2.7c-12.8,0-19.9,9.2-19.9,22.1c0,12,7.3,22.1,19.2,22.1
		c4.1,0,8-0.9,11.9-2.4l0.6,6.1c-4.5,1.6-8.6,1.9-13.6,1.9c-17,0-25.3-13-25.3-27.7c0-16.3,10.5-27.7,26.1-27.7
		c6.3,0,10.9,1.5,12.8,2.1L541.2,42.1z"/>
	<path fill="#FFFFFF" d="M552.8,10.1h6.5v46.5L583,35h8.4l-25.8,23.4l28.9,29.4h-9l-26.1-27.2v27.2h-6.5V10.1z"/>
	<path fill="#FFFFFF" d="M192.6,105.2h11.1l26.4,63.7l26.5-63.7h10.3v72.4h-7.2v-65.2h-0.2l-26.3,65.2h-6.1l-27.2-65.2h-0.2v65.2
		h-7.2V105.2z"/>
	<path fill="#FFFFFF" d="M298.7,168.8h0.1l15.2-44.1h6.8l-21.1,60.8c-2.5,7.3-6.2,14.5-13.6,14.5c-2.4,0-4.9-0.3-7-0.8l0.6-5.6
		c1.2,0.4,2.5,0.8,4.9,0.8c5.6,0,7.5-4.7,9.5-11.5l1.3-4.7l-18.8-53.5h7.2L298.7,168.8z"/>
	<path fill="#FFFFFF" d="M328.8,168.4c4.2,2.7,9.2,4.3,16,4.3c8.9,0,16.3-4.6,16.3-14.8c0-14.2-33.2-16-33.2-34.9
		c0-11.6,10.2-18.9,22.9-18.9c3.5,0,9.2,0.5,14.2,2.4l-1.1,6.5c-3.2-1.8-8.3-2.7-13.2-2.7c-7.5,0-15.7,3.1-15.7,12.4
		c0,14.5,33.2,14.6,33.2,35.8c0,14.6-12.5,20.4-23.7,20.4c-7,0-12.5-1.5-16.4-3.1L328.8,168.4z"/>
	<path fill="#FFFFFF" d="M416.3,131.8c-3.5-1.6-7.8-2.7-11.3-2.7c-12.8,0-19.9,9.2-19.9,22.1c0,12,7.3,22.1,19.2,22.1
		c4.1,0,8-0.9,11.9-2.4l0.6,6.1c-4.5,1.6-8.6,1.9-13.6,1.9c-17,0-25.3-13-25.3-27.7c0-16.3,10.5-27.7,26.1-27.7
		c6.3,0,10.9,1.5,12.8,2.1L416.3,131.8z"/>
	<path fill="#FFFFFF" d="M427.9,136.6c0-5.8,0-8-0.4-11.8h6.5v10.2h0.2c2.4-5.9,6.8-11.4,13.6-11.4c1.6,0,3.4,0.3,4.6,0.6v6.8
		c-1.3-0.4-3.1-0.6-4.8-0.6c-10.4,0-13.2,11.6-13.2,21.1v26.1h-6.5V136.6z"/>
	<path fill="#FFFFFF" d="M468.9,110.6h-6.5v-8.7h6.5V110.6z M462.4,124.7h6.5v52.9h-6.5V124.7z"/>
	<path fill="#FFFFFF" d="M484.8,124.7h6.5l-0.4,9.6h0.2c1.7-2.9,5.7-10.9,16.9-10.9c15.6,0,21.8,11.6,21.8,27.7
		c0,15.7-7.3,27.7-21.8,27.7c-8.3,0-13.3-3.4-16.5-10.3h-0.2v30.8h-6.5V124.7z M507,129.1c-11.6,0-15.7,12.4-15.7,22.1
		c0,9.6,4,22.1,15.7,22.1c12.4,0,15.7-11.8,15.7-22.1C522.6,140.9,519.4,129.1,507,129.1z"/>
	<path fill="#FFFFFF" d="M565.9,130.3h-12v34.2c0,4.8,1.8,8.7,7,8.7c2.5,0,4.1-0.5,6-1.2l0.4,5.4c-1.6,0.6-4.8,1.5-8,1.5
		c-11.6,0-12-8-12-17.6v-30.9h-10.4v-5.6h10.4V112l6.5-2.3v15h12V130.3z"/>
</g>
<path fill="#00AD68" d="M128.8,79l-49.7,49.6L49.7,99.2l-29.4,29.4l58.9,58.9l29.4-29.4l44.8-44.7c3.1-3.1,4.9-7.4,4.9-11.8V49.6
	L128.8,79z"/>
<path fill="#33A2BC" d="M49.7,0l-42,42C2.8,46.9,0,53.5,0,60.3v48.2l79.1-79L49.7,0z"/>
<path fill="#69C9BA" d="M49.7,0h51.9c4.4,0,8.7,1.8,11.9,4.9l44.8,44.7L128.8,79L49.7,0z"/>
</svg>
