<!-- Generator: Adobe Illustrator 18.1.1, SVG Export Plug-In  -->
<svg version="1.1"
	 xmlns="http://www.w3.org/2000/svg" xmlns:xlink="http://www.w3.org/1999/xlink" xmlns:a="http://ns.adobe.com/AdobeSVGViewerExtensions/3.0/"
	 x="0px" y="0px" width="310.2px" height="36.5px" viewBox="0 0 310.2 36.5" enable-background="new 0 0 310.2 36.5"
	 xml:space="preserve">
<defs>
</defs>
<g>
	<g>
		<path fill="#FFFFFF" d="M35.8,4.7h6c4.6,0,7.5,2.3,7.5,6.9c0,4.5-3.4,6.9-7.8,6.9h-3.3V29h-2.4V4.7z M38.2,16.4h1.7
			c3.6,0,7-0.4,7-4.8c0-3.1-1.7-4.8-4.8-4.8h-3.9V16.4z"/>
		<path fill="#FFFFFF" d="M52.9,15.2c0-2,0-2.7-0.1-4H55v3.4h0.1c0.8-2,2.3-3.8,4.6-3.8c0.5,0,1.2,0.1,1.5,0.2v2.3
			c-0.5-0.1-1-0.2-1.6-0.2c-3.5,0-4.4,3.9-4.4,7.1V29h-2.2V15.2z"/>
		<path fill="#FFFFFF" d="M75.8,28.4c-1.5,0.6-3.5,1-5.2,1c-5.9,0-8.1-4-8.1-9.3c0-5.4,3-9.3,7.5-9.3c5,0,7.1,4,7.1,8.8v1.1H65
			c0,3.8,2,6.8,5.9,6.8c1.6,0,3.9-0.7,5-1.3V28.4z M74.8,18.9c0-3.1-1.3-6.2-4.5-6.2c-3.2,0-5.2,3.2-5.2,6.2H74.8z"/>
		<path fill="#FFFFFF" d="M98.3,7.4c-1.5-0.8-3.7-1-5.4-1c-6.3,0-9.9,4.5-9.9,10.5c0,6.1,3.4,10.5,9.9,10.5c1.6,0,4-0.2,5.4-1
			l0.1,2.1c-1.3,0.8-4,1-5.6,1c-7.7,0-12.3-5.1-12.3-12.6c0-7.4,4.7-12.6,12.3-12.6c1.4,0,4.3,0.2,5.6,0.9L98.3,7.4z"/>
		<path fill="#FFFFFF" d="M104.6,2.9h2.2v11.4h0.1c0.9-2,2.9-3.4,5.5-3.4c4.8,0,6.1,3.2,6.1,7.6V29h-2.2V18.4c0-3.1-0.6-5.7-4.2-5.7
			c-3.9,0-5.3,3.7-5.3,6.8V29h-2.2V2.9z"/>
		<path fill="#FFFFFF" d="M135.9,28.4c-1.5,0.6-3.5,1-5.2,1c-5.9,0-8.1-4-8.1-9.3c0-5.4,3-9.3,7.5-9.3c5,0,7.1,4,7.1,8.8v1.1H125
			c0,3.8,2,6.8,5.9,6.8c1.6,0,3.9-0.7,5-1.3V28.4z M134.8,18.9c0-3.1-1.3-6.2-4.5-6.2c-3.2,0-5.2,3.2-5.2,6.2H134.8z"/>
		<path fill="#FFFFFF" d="M152.9,13.6c-1.2-0.5-2.6-0.9-3.8-0.9c-4.3,0-6.7,3.1-6.7,7.4c0,4,2.4,7.4,6.4,7.4c1.4,0,2.7-0.3,4-0.8
			l0.2,2.1c-1.5,0.5-2.9,0.6-4.6,0.6c-5.7,0-8.5-4.4-8.5-9.3c0-5.5,3.5-9.3,8.8-9.3c2.1,0,3.7,0.5,4.3,0.7L152.9,13.6z"/>
		<path fill="#FFFFFF" d="M156.8,2.9h2.2v15.6l7.9-7.3h2.8l-8.7,7.9l9.7,9.9h-3l-8.8-9.1V29h-2.2V2.9z"/>
		<path fill="#FFFFFF" d="M184.2,4.7h3.7l8.9,21.4l8.9-21.4h3.4V29h-2.4V7.1h-0.1L197.9,29h-2.1l-9.1-21.9h-0.1V29h-2.4V4.7z"/>
		<path fill="#FFFFFF" d="M219.9,26L219.9,26l5.2-14.8h2.3l-7.1,20.4c-0.8,2.4-2.1,4.9-4.6,4.9c-0.8,0-1.6-0.1-2.4-0.3l0.2-1.9
			c0.4,0.1,0.8,0.3,1.6,0.3c1.9,0,2.5-1.6,3.2-3.9l0.5-1.6l-6.3-18h2.4L219.9,26z"/>
		<path fill="#FFFFFF" d="M230,25.9c1.4,0.9,3.1,1.4,5.4,1.4c3,0,5.5-1.5,5.5-5c0-4.8-11.2-5.4-11.2-11.7c0-3.9,3.4-6.3,7.7-6.3
			c1.2,0,3.1,0.2,4.8,0.8l-0.4,2.2c-1.1-0.6-2.8-0.9-4.4-0.9c-2.5,0-5.3,1-5.3,4.2c0,4.9,11.2,4.9,11.2,12c0,4.9-4.2,6.9-8,6.9
			c-2.4,0-4.2-0.5-5.5-1L230,25.9z"/>
		<path fill="#FFFFFF" d="M259.4,13.6c-1.2-0.5-2.6-0.9-3.8-0.9c-4.3,0-6.7,3.1-6.7,7.4c0,4,2.4,7.4,6.4,7.4c1.4,0,2.7-0.3,4-0.8
			l0.2,2.1c-1.5,0.5-2.9,0.6-4.6,0.6c-5.7,0-8.5-4.4-8.5-9.3c0-5.5,3.5-9.3,8.8-9.3c2.1,0,3.7,0.5,4.3,0.7L259.4,13.6z"/>
		<path fill="#FFFFFF" d="M263.3,15.2c0-2,0-2.7-0.1-4h2.2v3.4h0.1c0.8-2,2.3-3.8,4.6-3.8c0.5,0,1.2,0.1,1.5,0.2v2.3
			c-0.5-0.1-1-0.2-1.6-0.2c-3.5,0-4.4,3.9-4.4,7.1V29h-2.2V15.2z"/>
		<path fill="#FFFFFF" d="M277.1,6.5h-2.2V3.6h2.2V6.5z M274.9,11.2h2.2V29h-2.2V11.2z"/>
		<path fill="#FFFFFF" d="M282.4,11.2h2.2l-0.1,3.2h0.1c0.6-1,1.9-3.7,5.7-3.7c5.2,0,7.3,3.9,7.3,9.3c0,5.3-2.4,9.3-7.3,9.3
			c-2.8,0-4.5-1.2-5.5-3.5h-0.1v10.3h-2.2V11.2z M289.9,12.7c-3.9,0-5.3,4.2-5.3,7.4s1.4,7.4,5.3,7.4c4.2,0,5.3-4,5.3-7.4
			S294.1,12.7,289.9,12.7z"/>
		<path fill="#FFFFFF" d="M309.7,13.1h-4v11.5c0,1.6,0.6,2.9,2.4,2.9c0.8,0,1.4-0.2,2-0.4l0.1,1.8c-0.5,0.2-1.6,0.5-2.7,0.5
			c-3.9,0-4-2.7-4-5.9V13.1H300v-1.9h3.5V6.9l2.2-0.8v5.1h4V13.1z"/>
	</g>
</g>
<g>
	<g>
		<path fill="#00AD68" d="M22.5,13.8l-8.7,8.7l-5.1-5.1l-5.1,5.1l10.3,10.3l5.1-5.1l7.8-7.8c0.5-0.5,0.9-1.3,0.9-2.1V8.7L22.5,13.8z
			"/>
		<path fill="#079EBA" d="M8.7,0L1.3,7.3C0.5,8.2,0,9.3,0,10.5V19L13.8,5.1L8.7,0z"/>
		<path fill="#31BCAA" d="M8.7,0h9.1c0.8,0,1.5,0.3,2.1,0.9l7.8,7.8l-5.1,5.1L8.7,0z"/>
	</g>
</g>
</svg>
