<!-- Generator: Adobe Illustrator 18.1.1, SVG Export Plug-In  -->
<svg version="1.1"
	 xmlns="http://www.w3.org/2000/svg" xmlns:xlink="http://www.w3.org/1999/xlink" xmlns:a="http://ns.adobe.com/AdobeSVGViewerExtensions/3.0/"
	 x="0px" y="0px" width="32px" height="32px" viewBox="0 0 32 32" enable-background="new 0 0 32 32" xml:space="preserve">
<defs>
</defs>
<g>
	<polygon fill="#FFFFFF" points="28.4,12.4 32,16 16,32 7.1,23.1 10.7,19.6 16,24.9 	"/>
	<polygon fill="#939598" points="26.7,10.7 16,0 0,16 5.3,21.3 7.1,19.6 3.6,16 16,3.6 24.9,12.4 	"/>
	
		<rect x="13.6" y="10.3" transform="matrix(-0.7071 -0.7071 0.7071 -0.7071 23.6949 32.9259)" fill="#939598" width="10.1" height="2.5"/>
	
		<rect x="10.1" y="13.9" transform="matrix(-0.7071 -0.7071 0.7071 -0.7071 15.1111 36.4814)" fill="#939598" width="10.1" height="2.5"/>
	
		<rect x="7.6" y="14.7" transform="matrix(-0.7071 -0.7071 0.7071 -0.7071 3.8606 33.5991)" fill="#939598" width="2.5" height="2.5"/>
</g>
</svg>
